<svg width="556" height="308" viewBox="0 0 556 308" fill="none" xmlns="http://www.w3.org/2000/svg">
<path d="M32.2656 51.1875L106.016 264.469H170.547L96.7969 51.1875H32.2656Z" fill="#5470C6"/>
<path d="M124.453 213.281L161.328 110.906H225.859L188.984 213.281H124.453Z" fill="#3BA272"/>
<path d="M142.891 162.094L179.766 59.7188H244.297L207.422 162.094H142.891Z" fill="#FC8452"/>
<path d="M161.328 110.906L198.203 8.53125H262.734L225.859 110.906H161.328Z" fill="#EE6666"/>
<path d="M106.016 264.469H170.547L188.984 213.281H124.453L106.016 264.469Z" fill="#1A202C"/>
<path d="M326.506 239V220.96L379.915 154.838V154.057H328.352V129.909H416.349V149.582L366.207 214.071V214.852H418.196V239H326.506Z" fill="white"/>
<path d="M443.642 239V93.5455H473.898V148.233H474.821C476.147 145.297 478.064 142.314 480.574 139.284C483.131 136.206 486.445 133.65 490.517 131.614C494.636 129.53 499.75 128.489 505.858 128.489C513.813 128.489 521.152 130.572 527.875 134.739C534.598 138.858 539.973 145.084 543.997 153.418C548.022 161.704 550.034 172.097 550.034 184.597C550.034 196.765 548.069 207.04 544.139 215.42C540.257 223.754 534.954 230.075 528.23 234.384C521.554 238.645 514.073 240.776 505.787 240.776C499.916 240.776 494.92 239.805 490.801 237.864C486.729 235.922 483.391 233.484 480.787 230.548C478.183 227.565 476.194 224.559 474.821 221.528H473.472V239H443.642ZM473.259 184.455C473.259 190.941 474.158 196.599 475.957 201.429C477.757 206.259 480.361 210.023 483.77 212.722C487.179 215.373 491.322 216.699 496.199 216.699C501.123 216.699 505.29 215.349 508.699 212.651C512.108 209.904 514.688 206.116 516.44 201.287C518.24 196.41 519.139 190.799 519.139 184.455C519.139 178.157 518.263 172.617 516.511 167.835C514.759 163.053 512.179 159.312 508.77 156.614C505.361 153.915 501.17 152.565 496.199 152.565C491.275 152.565 487.108 153.867 483.699 156.472C480.337 159.076 477.757 162.769 475.957 167.551C474.158 172.333 473.259 177.968 473.259 184.455Z" fill="white"/>
<path d="M267.074 239V129.909H297.33V239H267.074ZM282.273 115.847C277.775 115.847 273.916 114.355 270.696 111.372C267.524 108.342 265.938 104.72 265.938 100.506C265.938 96.339 267.524 92.7642 270.696 89.7812C273.916 86.7509 277.775 85.2358 282.273 85.2358C286.771 85.2358 290.606 86.7509 293.778 89.7812C296.998 92.7642 298.608 96.339 298.608 100.506C298.608 104.72 296.998 108.342 293.778 111.372C290.606 114.355 286.771 115.847 282.273 115.847Z" fill="white"/>
</svg>
